<?xml version="1.0" encoding="UTF-8"?>
<svg id="Layer_1" data-name="Layer 1" xmlns="http://www.w3.org/2000/svg" xmlns:xlink="http://www.w3.org/1999/xlink" viewBox="0 0 1607.65 1869.43">
  <defs>
    <style>
      .cls-1 {
        font-family: Montserrat-SemiBold, Montserrat;
        font-size: 193.4px;
        font-weight: 600;
      }

      .cls-1, .cls-2, .cls-3, .cls-4 {
        fill: #095d7e;
      }

      .cls-5 {
        letter-spacing: .12em;
      }

      .cls-6 {
        letter-spacing: .12em;
      }

      .cls-7 {
        letter-spacing: .14em;
      }

      .cls-8 {
        letter-spacing: .14em;
      }

      .cls-9 {
        letter-spacing: .1em;
      }

      .cls-2 {
        filter: url(#drop-shadow-2);
      }

      .cls-3 {
        filter: url(#drop-shadow-1);
      }

      .cls-10 {
        letter-spacing: .16em;
      }

      .cls-11 {
        letter-spacing: .14em;
      }

      .cls-12 {
        letter-spacing: .13em;
      }

      .cls-13 {
        letter-spacing: .13em;
      }

      .cls-14 {
        fill: #14967f;
      }

      .cls-15 {
        fill: none;
        stroke: #ccecee;
        stroke-linejoin: round;
        stroke-width: 20px;
      }
    </style>
    <filter id="drop-shadow-1" x="706.76" y="260.71" width="208" height="208" filterUnits="userSpaceOnUse">
      <feOffset dx="7" dy="7"/>
      <feGaussianBlur result="blur" stdDeviation="5"/>
      <feFlood flood-color="#000" flood-opacity=".75"/>
      <feComposite in2="blur" operator="in"/>
      <feComposite in="SourceGraphic"/>
    </filter>
    <filter id="drop-shadow-2" x="301.76" y="446.71" width="861" height="979" filterUnits="userSpaceOnUse">
      <feOffset dx="7" dy="7"/>
      <feGaussianBlur result="blur-2" stdDeviation="5"/>
      <feFlood flood-color="#000" flood-opacity=".75"/>
      <feComposite in2="blur-2" operator="in"/>
      <feComposite in="SourceGraphic"/>
    </filter>
  </defs>
  <g>
    <path class="cls-14" d="M558.15,1587.65c-11.05,0-20-8.95-20-20v-498.15H40c-11.05,0-20-8.95-20-20v-491.36c0-11.05,8.95-20,20-20h498.15V40c0-11.05,8.95-20,20-20h491.36c11.05,0,20,8.95,20,20v498.15h498.15c11.05,0,20,8.95,20,20v491.36c0,11.05-8.95,20-20,20h-498.15v498.15c0,11.05-8.95,20-20,20h-491.36Z"/>
    <path class="cls-4" d="M1049.51,40v518.15h518.15v491.36h-518.15v518.15h-491.36v-518.15H40v-491.36h518.15V40h491.36M1049.51,0h-491.36c-22.09,0-40,17.91-40,40v478.15H40c-22.09,0-40,17.91-40,40v491.36c0,22.09,17.91,40,40,40h478.15v478.15c0,22.09,17.91,40,40,40h491.36c22.09,0,40-17.91,40-40v-478.15h478.15c22.09,0,40-17.91,40-40v-491.36c0-22.09-17.91-40-40-40h-478.15V40c0-22.09-17.91-40-40-40h0Z"/>
  </g>
  <circle class="cls-3" cx="803.83" cy="357.86" r="88.43"/>
  <path class="cls-15" d="M625.43,827.42c94.9-.32,204.25.59,300.9-.28,6.7-.17,13.43-.51,20.16-1.29,4.7-.53,9.37-1.29,13.99-2.28,15.18-2.9,29.88-10.08,44.95-6.81,19.91,4.36,27.35,26.82,44.07,35.02,15.24,6.12,24.13-14.92,30.3-25.67,4.93-9.27,9.98-17.88,15.68-22.83,8.83-8.17,18.64-5.14,26.35,3.21,15.9,16.75,29.91,53.64,38.75,80.59,3.93,10.24,13.59,57.28,23.36,26.81,1.58-5.1,2.82-11.56,3.78-17.23,6.29-39.8,11.04-80.62,16.86-120.24,1.58-7.36,6.63-63.59,20.01-43.41,4.19,6.8,6.74,16.16,8.93,24.16,3.49,13.07,6.49,26.98,10.54,39.22,5.66,17.16,13.87,33.4,32.33,28.05,13-2.68,28.42-15.68,39.89-3.46,4.98,5.16,9.02,14.57,13.13,25.76,5.56,14.94,12.84,35.62,18.11,49.23,2.23,5.66,3.88,9.17,5.19,10.25,2.5,1.95,3.52-4.29,4.39-6.54,10.91-42.31,33.7-133.64,48.19-190.79,4.81-19.07,5.54-24.87,17.82-8.92,9.69,13.19,23.02,30.3,31.14,45.22,10.14,18.7,13.41,42.9,20.04,62.23,1.82,5.04,3.99,10.23,7.88,13.89,6.15,5.65,14.24,5.82,22.66,6.22,4.98.15,10.57.12,16.29.13,15.6,0,32.19,0,46.52,0"/>
  <path class="cls-15" d="M842.15,827.42c-93.76-.24-224.8.47-320.72-.27-14.15-.13-30.05-4.74-40.97-10.32-5.38-2.47-10.02-4.58-14.41-5.22-18.73-3.1-31.54,27.69-42.48,40.48-7.19,9.46-14.72,12.61-22.75.27-10.07-14.11-18.46-52.28-35.09-56.88-29.31-7.86-60.58,88.08-66.88,110.79-1.65,4.42-4.98,23.57-8.8,23.29-.79-.09-1.59-.98-2.4-2.68-.66-1.38-1.34-3.29-2.02-5.72-2.09-7.71-3.39-15.05-4.97-24.16-7.6-45.87-13.9-95.6-21.56-140.81-1.44-7.98-3.03-16.52-5.12-23.25-1.1-3.53-2.21-5.98-3.35-7.28-6.99-8.11-15.11,31.87-17.26,39.15-3.03,12.29-6.18,25.74-9.68,37.07-4.61,13.71-7.1,21.93-14.78,28.76-15.29,10.93-31.87-24.11-57.07-19.79-9.62,1.18-18.44,4.84-28.08,7.81-7.03,2.25-15.45,4.53-23.32,5.91-22.07,3.97-37.63,2.57-60.56,2.83"/>
  <path class="cls-2" d="M394.79,486.81c-63.23,31.83-87.49,102-82.66,169.81,2.96,33.54,12.39,74.62,44.57,90.66,52.4,22.38,78.18-32.01,97.48-71.76,16.86-35.7,43.03-58.1,82.9-63.38,19.19-2.15,41.68-1.34,54.98,12.51,9.12,10.28,4.73,24.57-.54,36.03-8.99,18.98-21.01,37.27-31.88,60.12-32.52,64.22-26.87,140.31,13.41,199.75,29.99,43.97,77.59,74.76,127.18,92.88,33.78,12.5,67.88,19.59,98.23,34.66,44.55,21.4,21.93,61.62-.24,93.13-37.47,55.85-112.86,127.44-110.17,193.35,1.65,39.23,33.2,67.89,72.59,67.28,73.99-1.85,116.35-78.51,158-132.74,26.92-37.69,55.3-75.53,71.37-118.23,28.74-73.99-2.47-160.55-61.84-210.29-27.53-24.02-60.24-42.42-91.57-61.3-27.31-16.4-53.38-33.7-71.06-59.73-22.83-30.86-33.35-97.61,15.71-102.89,19.07-1.16,34.22,5.58,55.17,14.13,13.7,5.81,28.35,12.23,42.83,17.5,26.09,9.69,53.12,14.26,80.47,11,68.47-8.37,135.08-56.66,165.95-117.81,16.56-33.41,21.92-82.05-7.41-109.08-19.4-17.82-47.66-16.34-69.77-2.78-27.61,15.41-50.51,44.6-77.7,62.14-29.12,19.28-64.56,9.53-92.71-8.17-30.91-19.54-61.81-47.19-93.09-66.5-24.21-15.54-48.1-26.67-75.41-35.31-37.85-12.28-78.19-19.23-117.96-22.87-66.63-6.61-136.73-3.77-196.65,27.8l-.18.1Z"/>
  <text class="cls-1" transform="translate(125.61 1818.17)"><tspan class="cls-11" x="0" y="0">S</tspan><tspan class="cls-9" x="148.65" y="0">M</tspan><tspan class="cls-7" x="352.49" y="0">e</tspan><tspan class="cls-5" x="499.63" y="0">d</tspan><tspan class="cls-8" x="656.64" y="0">i</tspan><tspan class="cls-12" x="740.36" y="0">T</tspan><tspan class="cls-6" x="882.22" y="0">E</tspan><tspan class="cls-13" x="1034.81" y="0">C</tspan><tspan class="cls-10" x="1199.78" y="0">H</tspan></text>
</svg>